<?xml version="1.0" encoding="UTF-8"?>
<svg width="78px" height="78px" viewBox="0 0 78 78" version="1.1" xmlns="http://www.w3.org/2000/svg" xmlns:xlink="http://www.w3.org/1999/xlink">
    <!-- Generator: Sketch 52.3 (67297) - http://www.bohemiancoding.com/sketch -->
    <title>iconfinder_trophy_2043176</title>
    <desc>Created with Sketch.</desc>
    <g id="Page-1" stroke="none" stroke-width="1" fill="none" fill-rule="evenodd">
        <g id="login_28@2x" transform="translate(-345.000000, -203.000000)" fill="#D9B680" fill-rule="nonzero">
            <g id="iconfinder_trophy_2043176" transform="translate(345.000000, 203.000000)">
                <path d="M55.7806452,69.6774194 L51.9096774,69.6774194 C49.0988364,69.5838704 46.841936,67.3269701 46.7483871,64.516129 L46.7483871,62.9935484 C41.7653597,64.9119508 36.2475435,64.9119508 31.2645161,62.9935484 L31.2645161,64.516129 C31.1709672,67.3269701 28.9140668,69.5838704 26.1032258,69.6774194 L22.2322581,69.6774194 C20.0943816,69.6774194 18.3612903,71.4105106 18.3612903,73.5483871 C18.3612903,75.6862635 20.0943816,77.4193548 22.2322581,77.4193548 L55.7806452,77.4193548 C57.9185216,77.4193548 59.6516129,75.6862635 59.6516129,73.5483871 C59.6516129,71.4105106 57.9185216,69.6774194 55.7806452,69.6774194 Z M73.8451613,0 L4.16774194,0 C2.02986548,-1.71905501e-15 0.296774194,1.73309129 0.296774194,3.87096774 L0.296774194,21.9354839 C0.296774194,31.9122406 8.38453355,40 18.3612903,40 L22.516129,40 C26.7225806,50.3225806 32.5548387,56.7741935 39.0064516,56.7741935 C45.4580645,56.7741935 51.2903226,50.3483871 55.4967742,40 L59.6516129,40 C64.4426205,40 69.0374008,38.0967797 72.4251548,34.7090257 C75.8129087,31.3212718 77.716129,26.7264914 77.716129,21.9354839 L77.716129,3.87096774 C77.716129,1.73309129 75.9830377,0 73.8451613,0 Z M18.3612903,32.2580645 C12.6602865,32.2580645 8.03870968,27.6364877 8.03870968,21.9354839 L8.03870968,7.74193548 L16.0645161,7.74193548 C16.470947,16.0310689 17.7775517,24.2514295 19.9612903,32.2580645 L18.3612903,32.2580645 Z M69.9741935,21.9354839 C69.9741935,27.6364877 65.3526168,32.2580645 59.6516129,32.2580645 L58.1032258,32.2580645 C60.2869644,24.2514295 61.5935691,16.0310689 62,7.74193548 L69.9741935,7.74193548 L69.9741935,21.9354839 Z" id="Shape"></path>
            </g>
        </g>
    </g>
</svg>